<svg width="35" height="35" viewBox="0 0 35 35" fill="none" xmlns="http://www.w3.org/2000/svg">
<circle cx="17.5" cy="17.5" r="17" fill="white" stroke="#6C757D"/>
<path fill-rule="evenodd" clip-rule="evenodd" d="M11.3 15.3C10.9 15.7 10.9 16.3 11.3 16.7C11.7 17.1 12.3 17.1 12.7 16.7L17 12.4L21.3 16.7C21.5 16.9 21.7 17 22 17C22.3 17 22.5 16.9 22.7 16.7C23.1 16.3 23.1 15.7 22.7 15.3L17.7 10.3C17.3 9.9 16.7 9.9 16.3 10.3L11.3 15.3ZM11.3 22.3L16.3 17.3C16.7 16.9 17.3 16.9 17.7 17.3L22.7 22.3C23.1 22.7 23.1 23.3 22.7 23.7C22.5 23.9 22.2 24 22 24C21.8 24 21.5 23.9 21.3 23.7L17 19.4L12.7 23.7C12.3 24.1 11.7 24.1 11.3 23.7C10.9 23.3 10.9 22.7 11.3 22.3Z" fill="#212529"/>
<mask id="mask0_484_2009" style="mask-type:alpha" maskUnits="userSpaceOnUse" x="11" y="10" width="12" height="14">
<path fill-rule="evenodd" clip-rule="evenodd" d="M11.3 15.3C10.9 15.7 10.9 16.3 11.3 16.7C11.7 17.1 12.3 17.1 12.7 16.7L17 12.4L21.3 16.7C21.5 16.9 21.7 17 22 17C22.3 17 22.5 16.9 22.7 16.7C23.1 16.3 23.1 15.7 22.7 15.3L17.7 10.3C17.3 9.9 16.7 9.9 16.3 10.3L11.3 15.3ZM11.3 22.3L16.3 17.3C16.7 16.9 17.3 16.9 17.7 17.3L22.7 22.3C23.1 22.7 23.1 23.3 22.7 23.7C22.5 23.9 22.2 24 22 24C21.8 24 21.5 23.9 21.3 23.7L17 19.4L12.7 23.7C12.3 24.1 11.7 24.1 11.3 23.7C10.9 23.3 10.9 22.7 11.3 22.3Z" fill="white"/>
</mask>
<g mask="url(#mask0_484_2009)">
</g>
</svg>
