<svg xmlns="http://www.w3.org/2000/svg" viewBox="0 0 85.03 121.94"><defs><style>.cls-1{fill:#adccce;}.cls-2{fill:#fff;}.cls-3{fill:#201600;}.cls-4{fill:#f6ed54;stroke:#201600;stroke-miterlimit:10;stroke-width:2px;}</style></defs><title>Ресурс 1</title><g id="Слой_2" data-name="Слой 2"><g id="Слой_1-2" data-name="Слой 1"><circle class="cls-1" cx="42.52" cy="42.52" r="42.52"/><polygon class="cls-1" points="0 42.52 6.55 65.19 42.77 121.94 80.74 61.14 85.03 42.52 0 42.52"/><circle class="cls-2" cx="42.52" cy="42.52" r="35.48"/><polygon class="cls-3" points="20.26 32.65 42.13 23.55 64.77 32.65 42.52 42.52 20.26 32.65"/><line class="cls-4" x1="62.35" y1="33.03" x2="62.35" y2="44.74"/><rect class="cls-3" x="59.74" y="44.74" width="5.03" height="5.03" rx="1.43"/><path class="cls-3" d="M43,58.58c11.32,0,15.49-4.64,15.49-4.64v-15s-12.67,5.56-16.2,5.85C39.53,45,27,38.89,27,38.89v15s4.68,4.64,16,4.64"/></g></g></svg>