<svg width="38" height="38" viewBox="0 0 38 38" fill="none" xmlns="http://www.w3.org/2000/svg">
<path d="M19.2658 0.00176529C8.5806 -0.142548 -0.142555 8.58019 0.00176537 19.2649C0.144259 29.512 8.48835 37.8557 18.736 37.9982C29.423 38.1443 38.1443 29.4216 37.9982 18.7369C37.8575 8.48794 29.5134 0.144252 19.2658 0.00176529ZM34.803 17.5313L26.3009 17.5221C26.2594 17.5221 26.2191 17.5078 26.1867 17.4817C26.1543 17.4557 26.1318 17.4193 26.1228 17.3787C25.7594 15.7926 24.8774 14.3729 23.6164 13.3444C23.5843 13.3184 23.562 13.2823 23.553 13.242C23.544 13.2017 23.549 13.1595 23.5671 13.1224L27.3413 5.50211C27.3526 5.47901 27.3686 5.45855 27.3884 5.44207C27.4081 5.4256 27.4311 5.41347 27.4558 5.40648C27.4806 5.3995 27.5065 5.39782 27.532 5.40155C27.5574 5.40528 27.5818 5.41434 27.6035 5.42813C29.6512 6.72751 31.3788 8.47285 32.6571 10.5337C33.9354 12.5946 34.7315 14.9177 34.9857 17.3294C34.9884 17.355 34.9857 17.3808 34.9777 17.4052C34.9698 17.4296 34.9567 17.4521 34.9395 17.4712C34.9223 17.4902 34.9012 17.5054 34.8777 17.5158C34.8542 17.5261 34.8287 17.5314 34.803 17.5313ZM14.6347 19.4C14.5525 18.5025 14.7489 17.6015 15.1971 16.8196C15.6454 16.0377 16.3237 15.4129 17.1398 15.0304C17.9559 14.6478 18.87 14.526 19.7578 14.6816C20.6456 14.8372 21.4638 15.2626 22.1011 15.8999C22.7384 16.5372 23.1639 17.3554 23.3195 18.2431C23.4751 19.1308 23.3533 20.045 22.9707 20.861C22.5881 21.677 21.9633 22.3553 21.1814 22.8036C20.3994 23.2518 19.4984 23.4481 18.6008 23.3659C17.5805 23.2724 16.6251 22.8246 15.9006 22.1001C15.1761 21.3756 14.7282 20.4203 14.6347 19.4ZM10.6568 5.50211L14.4338 13.1224C14.4519 13.1595 14.4568 13.2017 14.4479 13.242C14.4389 13.2823 14.4166 13.3184 14.3845 13.3444C13.1228 14.3726 12.2401 15.7923 11.8762 17.3787C11.8671 17.4201 11.8439 17.457 11.8106 17.4832C11.7773 17.5094 11.7359 17.5231 11.6935 17.5221L3.19143 17.5313C3.16573 17.5314 3.1403 17.5261 3.11678 17.5158C3.09327 17.5054 3.0722 17.4902 3.05496 17.4712C3.03772 17.4521 3.02469 17.4296 3.01673 17.4052C3.00877 17.3808 3.00604 17.355 3.00874 17.3294C3.263 14.9177 4.05904 12.5946 5.33738 10.5337C6.61571 8.47285 8.34328 6.72751 10.391 5.42813C10.4128 5.4137 10.4375 5.40412 10.4633 5.40004C10.4892 5.39597 10.5156 5.39749 10.5408 5.4045C10.566 5.41152 10.5894 5.42386 10.6094 5.4407C10.6294 5.45754 10.6456 5.47848 10.6568 5.50211ZM10.623 32.4777L15.7665 25.7105C15.7917 25.6775 15.8275 25.6541 15.8678 25.6441C15.9082 25.6342 15.9507 25.6383 15.9884 25.6557C16.9352 26.0855 17.963 26.3078 19.0027 26.3078C20.0425 26.3078 21.0702 26.0855 22.017 25.6557C22.0547 25.6383 22.0973 25.6342 22.1376 25.6441C22.178 25.6541 22.2137 25.6775 22.239 25.7105L27.3824 32.4777C27.398 32.498 27.4091 32.5214 27.4151 32.5462C27.421 32.5711 27.4217 32.5969 27.417 32.6221C27.4124 32.6472 27.4025 32.6711 27.3881 32.6922C27.3736 32.7132 27.3549 32.7311 27.3331 32.7445C24.8226 34.2691 21.9418 35.0754 19.0045 35.0754C16.0673 35.0754 13.1865 34.2691 10.676 32.7445C10.6539 32.7314 10.6349 32.7138 10.62 32.6928C10.6052 32.6719 10.595 32.6481 10.59 32.6229C10.585 32.5978 10.5853 32.5718 10.591 32.5468C10.5967 32.5218 10.6076 32.4983 10.623 32.4777Z" fill="#007BFF"/>
</svg>
