<svg width="28" height="39" viewBox="0 0 28 39" fill="none" xmlns="http://www.w3.org/2000/svg">
<path d="M8.42857 29.7778V25.6667V29.7778ZM14 29.7778V21.5556V29.7778ZM19.5714 29.7778V17.4444V29.7778ZM23.2857 38H4.71429C3.7292 38 2.78445 37.5669 2.08789 36.7959C1.39133 36.0249 1 34.9792 1 33.8889V5.11111C1 4.02078 1.39133 2.9751 2.08789 2.20412C2.78445 1.43313 3.7292 1 4.71429 1H15.0883C15.5808 1.00012 16.0531 1.21676 16.4013 1.60228L26.4559 12.7311C26.8042 13.1165 26.9999 13.6392 27 14.1843V33.8889C27 34.9792 26.6087 36.0249 25.9121 36.7959C25.2155 37.5669 24.2708 38 23.2857 38Z" stroke="#007BFF" stroke-width="2" stroke-linecap="round" stroke-linejoin="round"/>
</svg>
