<svg width="38" height="38" viewBox="0 0 38 38" fill="none" xmlns="http://www.w3.org/2000/svg">
<path d="M11.4792 3.42H11.0833C11.301 3.42 11.4792 3.249 11.4792 3.04V3.42H26.5208V3.04C26.5208 3.249 26.699 3.42 26.9167 3.42H26.5208V6.84H30.0833V3.04C30.0833 1.36325 28.6633 0 26.9167 0H11.0833C9.33672 0 7.91667 1.36325 7.91667 3.04V6.84H11.4792V3.42ZM36.4167 6.84H1.58333C0.707552 6.84 0 7.51925 0 8.36V9.88C0 10.089 0.178125 10.26 0.395833 10.26H3.38437L4.60651 35.1025C4.68568 36.7222 6.08099 38 7.76823 38H30.2318C31.924 38 33.3143 36.727 33.3935 35.1025L34.6156 10.26H37.6042C37.8219 10.26 38 10.089 38 9.88V8.36C38 7.51925 37.2924 6.84 36.4167 6.84ZM29.8508 34.58H8.14922L6.95182 10.26H31.0482L29.8508 34.58Z" fill="#007BFF"/>
</svg>
