<svg width="38" height="38" viewBox="0 0 38 38" fill="none" xmlns="http://www.w3.org/2000/svg">
<path d="M36.6564 13.0169C38.9294 10.744 37.8929 8.08934 36.6564 6.79836L31.2013 1.34353C28.9101 -0.929315 26.2735 0.107103 24.9824 1.34353L21.8912 4.45279H17.1816C13.7267 4.45279 11.7265 6.27106 10.7082 8.36208L2.63465 16.4352V23.7083L1.3436 24.9811C-0.929364 27.2722 0.107109 29.9087 1.3436 31.1996L6.79872 36.6545C7.78064 37.6363 8.8353 38 9.8354 38C11.1264 38 12.3084 37.3636 13.0176 36.6545L17.9272 31.7269H24.4551C27.5464 31.7269 29.1102 29.7996 29.6739 27.9086C31.7286 27.3631 32.856 25.7994 33.3106 24.272C36.1291 23.5447 37.1837 20.8718 37.1837 18.999V13.5442H36.1109L36.6564 13.0169ZM33.547 18.999C33.547 19.8172 33.2015 20.8173 31.7286 20.8173H29.9102V22.6356C29.9102 23.4538 29.5647 24.4538 28.0919 24.4538H26.2735V26.2721C26.2735 27.0903 25.928 28.0904 24.4551 28.0904H16.4361L10.4718 34.0543C9.90814 34.5816 9.58083 34.2725 9.38081 34.0725L3.94388 28.6541C3.41655 28.0904 3.72567 27.7631 3.92569 27.5631L6.27139 25.1993V17.9262L9.90814 14.2897V17.1807C9.90814 19.3808 11.3628 22.6356 15.3633 22.6356C19.3637 22.6356 20.8184 19.3808 20.8184 17.1807H33.547V18.999ZM34.0743 10.4349L30.9831 13.5442H17.1816V17.1807C17.1816 17.999 16.8361 18.999 15.3633 18.999C13.8904 18.999 13.5449 17.999 13.5449 17.1807V11.7259C13.5449 10.8895 13.854 8.08934 17.1816 8.08934H23.3823L27.5282 3.94367C28.0919 3.41637 28.4192 3.72547 28.6192 3.92549L34.0561 9.34395C34.5835 9.90762 34.2743 10.2349 34.0743 10.4349Z" fill="#007BFF"/>
</svg>
