<svg width="40" height="40" viewBox="0 0 40 40" fill="none" xmlns="http://www.w3.org/2000/svg">
<path d="M5 5V33.3333C5 33.7754 5.17559 34.1993 5.48816 34.5118C5.80072 34.8244 6.22464 35 6.66667 35H35V31.6667H8.33333V5H5Z" fill="#007BFF"/>
<path d="M25.4884 24.5115C25.643 24.6664 25.8267 24.7893 26.0289 24.8732C26.2311 24.957 26.4478 25.0002 26.6667 25.0002C26.8856 25.0002 27.1023 24.957 27.3045 24.8732C27.5067 24.7893 27.6904 24.6664 27.845 24.5115L36.1784 16.1782L33.8217 13.8215L26.6667 20.9765L22.845 17.1549C22.6904 17 22.5067 16.8771 22.3045 16.7932C22.1023 16.7094 21.8856 16.6662 21.6667 16.6662C21.4478 16.6662 21.2311 16.7094 21.0289 16.7932C20.8267 16.8771 20.643 17 20.4884 17.1549L12.155 25.4882L14.5117 27.8449L21.6667 20.6899L25.4884 24.5115Z" fill="#007BFF"/>
</svg>
