<svg width="38" height="39" viewBox="0 0 38 39" fill="none" xmlns="http://www.w3.org/2000/svg">
<path d="M15.0478 16.0448C13.4606 16.0448 11.9091 15.574 10.5896 14.692C9.27002 13.8099 8.24177 12.5563 7.63493 11.0897C7.02808 9.62312 6.8699 8.00947 7.18041 6.45295C7.49092 4.89643 8.25616 3.467 9.3793 2.34552C10.5024 1.22404 11.933 0.460913 13.49 0.152708C15.047 -0.155497 16.6604 0.00506736 18.1261 0.614085C19.5918 1.2231 20.8439 2.2532 21.724 3.57404C22.604 4.89488 23.0726 6.4471 23.0702 8.03428C23.0639 10.1589 22.2163 12.1946 20.7128 13.6959C19.2094 15.1971 17.1725 16.0417 15.0478 16.0448ZM15.0478 2.38537C13.9305 2.38537 12.8384 2.71667 11.9094 3.33738C10.9805 3.95809 10.2564 4.84033 9.82888 5.87253C9.40132 6.90474 9.28946 8.04055 9.50742 9.13633C9.72539 10.2321 10.2634 11.2387 11.0534 12.0287C11.8434 12.8187 12.85 13.3567 13.9457 13.5747C15.0415 13.7926 16.1773 13.6808 17.2095 13.2532C18.2417 12.8256 19.124 12.1016 19.7447 11.1727C20.3654 10.2437 20.6967 9.15153 20.6967 8.03428C20.6967 6.5361 20.1016 5.09927 19.0422 4.0399C17.9828 2.98052 16.546 2.38537 15.0478 2.38537Z" fill="#007BFF"/>
<path d="M17.1129 36.0652C16.8535 35.8058 16.6534 35.4932 16.5264 35.149C16.3994 34.8048 16.3485 34.4372 16.3771 34.0715H2.37349V27.2121C4.05619 25.4166 6.09716 23.9944 8.3643 23.0377C10.6314 22.081 13.0742 21.611 15.5345 21.6581H16.389C16.3345 21.2602 16.3726 20.8551 16.5002 20.4743C16.6278 20.0936 16.8415 19.7473 17.1248 19.4626L17.2672 19.3321C16.7094 19.3321 16.0804 19.2609 15.5345 19.2609C12.6393 19.1921 9.76505 19.7676 7.1195 20.9457C4.47395 22.1238 2.12324 23.875 0.237349 26.0728C0.0832834 26.2782 0 26.5281 0 26.7849V34.0715C0 34.701 0.250064 35.3047 0.69518 35.7498C1.1403 36.1949 1.744 36.445 2.37349 36.445H17.4452L17.1129 36.0652Z" fill="#007BFF"/>
<path d="M37.5959 26.1441L35.2224 25.4202C35.0528 24.8397 34.8221 24.2788 34.5341 23.7469L35.7209 21.5395C35.7595 21.4512 35.7688 21.3529 35.7474 21.2589C35.7261 21.165 35.6752 21.0803 35.6022 21.0174L33.8814 19.2966C33.8163 19.2261 33.7294 19.1796 33.6347 19.1646C33.54 19.1495 33.443 19.1667 33.3593 19.2135L31.1756 20.4002C30.6379 20.098 30.0689 19.8552 29.4786 19.6763L28.7547 17.3028C28.7239 17.2155 28.6657 17.1405 28.5886 17.0891C28.5116 17.0377 28.4199 17.0128 28.3274 17.018H25.8946C25.8012 17.0169 25.7099 17.0465 25.6349 17.1023C25.5599 17.158 25.5052 17.2368 25.4792 17.3266L24.7553 19.7001C24.1609 19.873 23.5877 20.1118 23.0464 20.4121L20.8865 19.2254C20.8046 19.1795 20.7096 19.1627 20.6169 19.1778C20.5242 19.1929 20.4394 19.239 20.3762 19.3084L18.6199 21.0174C18.5547 21.0859 18.5128 21.1733 18.5 21.267C18.4873 21.3607 18.5043 21.456 18.5486 21.5395L19.7354 23.6994C19.4215 24.2343 19.1706 24.8038 18.9877 25.3965L16.6142 26.1085C16.5245 26.1345 16.4457 26.1891 16.3899 26.2642C16.3342 26.3392 16.3046 26.4304 16.3057 26.5239V28.9567C16.3127 29.0424 16.3462 29.1238 16.4014 29.1897C16.4567 29.2556 16.5311 29.3028 16.6142 29.3246L18.9877 30.0485C19.1631 30.6307 19.4019 31.1918 19.6998 31.7218L18.513 33.9885C18.4678 34.0697 18.4502 34.1635 18.4631 34.2556C18.4759 34.3477 18.5185 34.4331 18.5842 34.4988L20.305 36.2196C20.3722 36.2866 20.4589 36.3308 20.5527 36.3457C20.6464 36.3606 20.7425 36.3455 20.8272 36.3027L23.0464 35.1159C23.5745 35.4 24.1315 35.6267 24.7079 35.7924L25.4199 38.1659C25.4491 38.2537 25.5046 38.3304 25.5789 38.3856C25.6532 38.4408 25.7427 38.4718 25.8353 38.4744H28.2681C28.3611 38.4736 28.4514 38.4433 28.5261 38.3878C28.6007 38.3324 28.6558 38.2546 28.6835 38.1659L29.4074 35.733C29.9761 35.5673 30.5252 35.3405 31.0451 35.0566L33.288 36.2433C33.3705 36.2871 33.465 36.3027 33.5572 36.2877C33.6493 36.2727 33.7341 36.228 33.7983 36.1603L35.6022 34.5463C35.6507 34.4766 35.6767 34.3938 35.6767 34.3089C35.6767 34.2241 35.6507 34.1412 35.6022 34.0716L34.4155 31.8405C34.7036 31.317 34.9343 30.7639 35.1038 30.1909L37.4773 29.467C37.567 29.441 37.6458 29.3864 37.7016 29.3113C37.7573 29.2363 37.7869 29.1451 37.7858 29.0516V26.5595C37.7967 26.4794 37.7846 26.3978 37.751 26.3243C37.7174 26.2508 37.6636 26.1883 37.5959 26.1441ZM27.117 31.6981C26.332 31.7004 25.564 31.4697 24.9104 31.035C24.2567 30.6004 23.7468 29.9815 23.4454 29.2567C23.1439 28.5319 23.0644 27.734 23.217 26.964C23.3695 26.194 23.7473 25.4866 24.3023 24.9316C24.8574 24.3765 25.5647 23.9988 26.3347 23.8462C27.1047 23.6937 27.9027 23.7731 28.6274 24.0746C29.3522 24.3761 29.9711 24.886 30.4058 25.5396C30.8404 26.1933 31.0712 26.9613 31.0688 27.7462C31.0657 28.7934 30.6483 29.7967 29.9079 30.5371C29.1675 31.2776 28.1641 31.695 27.117 31.6981Z" fill="#007BFF"/>
</svg>
