<svg width="33" height="44" viewBox="0 0 33 44" fill="none" xmlns="http://www.w3.org/2000/svg">
<path d="M26.7618 20.5028C26.9765 20.2844 27.0953 19.992 27.0926 19.6884C27.0899 19.3848 26.9659 19.0944 26.7474 18.8797C26.5289 18.665 26.2333 18.5432 25.9243 18.5406C25.6153 18.5379 25.3176 18.6546 25.0953 18.8656L16.5 27.3101L12.6189 23.4971C12.3966 23.2862 12.0989 23.1695 11.7899 23.1721C11.4809 23.1748 11.1853 23.2966 10.9668 23.5112C10.7483 23.7259 10.6243 24.0163 10.6216 24.3199C10.6189 24.6235 10.7377 24.916 10.9524 25.1344L16.5 30.5846L26.7618 20.5028Z" fill="#007BFF"/>
<path fill-rule="evenodd" clip-rule="evenodd" d="M33.0001 11.5789V35.8947C33.0001 36.816 32.6276 37.6996 31.9645 38.351C31.3014 39.0024 30.4021 39.3684 29.4644 39.3684H8.25007C7.31234 39.3684 6.41302 39.0024 5.74994 38.351C5.08687 37.6996 4.71436 36.816 4.71436 35.8947V3.47368C4.71436 2.55241 5.08687 1.66886 5.74994 1.01742C6.41302 0.365977 7.31234 0 8.25007 0H21.2144L33.0001 11.5789ZM21.2144 12.7368C20.9018 12.7368 20.602 12.6149 20.381 12.3977C20.16 12.1806 20.0358 11.886 20.0358 11.5789V2.31579H8.25007C7.93749 2.31579 7.63772 2.43778 7.41669 2.65493C7.19567 2.87208 7.0715 3.16659 7.0715 3.47368V35.8947C7.0715 36.2018 7.19567 36.4963 7.41669 36.7135C7.63772 36.9306 7.93749 37.0526 8.25007 37.0526H29.4644C29.7769 37.0526 30.0767 36.9306 30.2977 36.7135C30.5188 36.4963 30.6429 36.2018 30.6429 35.8947V12.7368H21.2144ZM22.3929 4.43242L28.4885 10.4211H22.3929V4.43242Z" fill="#007BFF"/>
<path d="M2.35714 6.94727V38.2104C2.35714 39.1317 2.72965 40.0152 3.39273 40.6667C4.0558 41.3181 4.95513 41.6841 5.89286 41.6841H28.2857V43.9999H5.89286C4.32997 43.9999 2.8311 43.3899 1.72598 42.3042C0.620853 41.2185 0 39.7459 0 38.2104V6.94727H2.35714Z" fill="#007BFF"/>
</svg>
