<svg width="38" height="38" viewBox="0 0 38 38" fill="none" xmlns="http://www.w3.org/2000/svg">
<path d="M7.86207 38H13.1034V31.2941H28.8276V26.8235H13.1034V22.3529H24.8966C32.1218 22.3529 38 17.3392 38 11.1765C38 5.01376 32.1218 0 24.8966 0H10.4828C9.78771 0 9.12113 0.235504 8.62965 0.654703C8.13818 1.0739 7.86207 1.64246 7.86207 2.23529V17.8824H0V22.3529H7.86207V26.8235H0V31.2941H7.86207V38ZM13.1034 4.47059H24.8966C29.2312 4.47059 32.7586 7.47929 32.7586 11.1765C32.7586 14.8736 29.2312 17.8824 24.8966 17.8824H13.1034V4.47059Z" fill="#007BFF"/>
</svg>
