<svg width="44" height="44" viewBox="0 0 44 44" fill="none" xmlns="http://www.w3.org/2000/svg">
<path fill-rule="evenodd" clip-rule="evenodd" d="M43.3048 0.205928C43.5173 0.329114 43.6926 0.501131 43.8143 0.705671C43.936 0.91021 43.9999 1.14049 44 1.37469V42.625C44 42.9897 43.8455 43.3394 43.5704 43.5973C43.2954 43.8551 42.9223 44 42.5333 44H33.7333C33.3443 44 32.9713 43.8551 32.6962 43.5973C32.4212 43.3394 32.2667 42.9897 32.2667 42.625V38.5H29.3333V42.625C29.3333 42.9897 29.1788 43.3394 28.9038 43.5973C28.6287 43.8551 28.2557 44 27.8667 44H1.46667C1.07768 44 0.70463 43.8551 0.429577 43.5973C0.154523 43.3394 0 42.9897 0 42.625V27.4999C0.00023363 27.2114 0.0972344 26.9303 0.277273 26.6964C0.457312 26.4625 0.711269 26.2875 1.0032 26.1964L17.6 21.0098V12.3748C17.6 12.1196 17.6757 11.8695 17.8187 11.6524C17.9617 11.4353 18.1663 11.2598 18.4096 11.1455L41.8763 0.145428C42.1001 0.040393 42.3489 -0.00918893 42.5989 0.00140108C42.849 0.0119911 43.092 0.0824007 43.3048 0.205928ZM17.6 23.9084L2.93333 28.4899V41.25H17.6V23.9084ZM20.5333 41.25H26.4V37.125C26.4 36.7603 26.5545 36.4105 26.8296 36.1527C27.1046 35.8948 27.4777 35.7499 27.8667 35.7499H33.7333C34.1223 35.7499 34.4954 35.8948 34.7704 36.1527C35.0455 36.4105 35.2 36.7603 35.2 37.125V41.25H41.0667V3.59945L20.5333 13.2245V41.25Z" fill="#007BFF"/>
<path d="M5.8667 30.2499H8.80003V32.9999H5.8667V30.2499ZM11.7334 30.2499H14.6667V32.9999H11.7334V30.2499ZM5.8667 35.75H8.80003V38.5H5.8667V35.75ZM11.7334 35.75H14.6667V38.5H11.7334V35.75ZM23.4667 24.7499H26.4V27.4999H23.4667V24.7499ZM29.3334 24.7499H32.2667V27.4999H29.3334V24.7499ZM23.4667 30.2499H26.4V32.9999H23.4667V30.2499ZM29.3334 30.2499H32.2667V32.9999H29.3334V30.2499ZM35.2 24.7499H38.1334V27.4999H35.2V24.7499ZM35.2 30.2499H38.1334V32.9999H35.2V30.2499ZM23.4667 19.2498H26.4V21.9999H23.4667V19.2498ZM29.3334 19.2498H32.2667V21.9999H29.3334V19.2498ZM35.2 19.2498H38.1334V21.9999H35.2V19.2498ZM23.4667 13.7498H26.4V16.4998H23.4667V13.7498ZM29.3334 13.7498H32.2667V16.4998H29.3334V13.7498ZM35.2 13.7498H38.1334V16.4998H35.2V13.7498ZM35.2 8.24976H38.1334V10.9998H35.2V8.24976Z" fill="#007BFF"/>
</svg>
