<svg width="52" height="35" viewBox="0 0 52 35" fill="none" xmlns="http://www.w3.org/2000/svg">
<path d="M3.32475 28.6987C2.3329 28.2923 1.49217 27.6386 0.902713 26.8156C0.313251 25.9926 -9.52561e-05 25.0349 1.22225e-06 24.0565V20.5195C-0.000980871 18.9125 0.589904 17.3502 1.68077 16.0757C2.77163 14.8011 4.30134 13.8856 6.032 13.4717L12.8343 11.8446L17.8425 3.7499C18.5466 2.61271 19.577 1.66527 20.8268 1.00589C22.0766 0.346504 23.5004 -0.000803538 24.9503 1.39598e-06H35.9418C37.6469 0.000550941 39.3086 0.482396 40.6916 1.3773C42.0746 2.2722 43.1087 3.53479 43.6475 4.98627L46.3223 12.1828C47.9693 12.6496 49.4077 13.5752 50.4287 14.8252C51.4497 16.0753 52.0001 17.5847 52 19.1344V24.0565C52.0001 25.0349 51.6867 25.9926 51.0973 26.8156C50.5078 27.6386 49.6671 28.2923 48.6752 28.6987C48.415 30.4048 47.49 31.9731 46.0642 33.1257C44.6385 34.2784 42.804 34.9411 40.8857 34.9963C38.9675 35.0514 37.0894 34.4956 35.5843 33.4273C34.0791 32.3589 33.0441 30.847 32.6625 29.1594H19.3375C18.9559 30.847 17.9209 32.3589 16.4157 33.4273C14.9106 34.4956 13.0325 35.0514 11.1143 34.9963C9.19605 34.9411 7.36152 34.2784 5.93575 33.1257C4.50998 31.9731 3.58502 30.4048 3.32475 28.6987V28.6987ZM35.9385 2.91595H32.5V11.6638H42.705L40.5632 5.9077C40.2402 5.03757 39.6206 4.28056 38.7918 3.74369C37.9631 3.20681 36.9672 2.91725 35.945 2.91595H35.9385ZM20.6895 5.16705L16.666 11.6638H29.25V2.91595H24.9503C24.0808 2.9162 23.2273 3.12506 22.4782 3.52087C21.729 3.91668 21.1115 4.48504 20.6895 5.16705V5.16705ZM45.5 27.7015C45.5 26.5414 44.9864 25.4289 44.0721 24.6086C43.1579 23.7884 41.9179 23.3276 40.625 23.3276C39.3321 23.3276 38.0921 23.7884 37.1779 24.6086C36.2636 25.4289 35.75 26.5414 35.75 27.7015C35.75 28.8615 36.2636 29.974 37.1779 30.7943C38.0921 31.6146 39.3321 32.0754 40.625 32.0754C41.9179 32.0754 43.1579 31.6146 44.0721 30.7943C44.9864 29.974 45.5 28.8615 45.5 27.7015ZM16.25 27.7015C16.25 27.1271 16.1239 26.5583 15.8789 26.0276C15.6339 25.497 15.2748 25.0148 14.8221 24.6086C14.3695 24.2025 13.832 23.8803 13.2406 23.6605C12.6491 23.4407 12.0152 23.3276 11.375 23.3276C10.7348 23.3276 10.1009 23.4407 9.50942 23.6605C8.91796 23.8803 8.38054 24.2025 7.92786 24.6086C7.47517 25.0148 7.11608 25.497 6.87109 26.0276C6.6261 26.5583 6.5 27.1271 6.5 27.7015C6.5 28.8615 7.01362 29.974 7.92786 30.7943C8.8421 31.6146 10.0821 32.0754 11.375 32.0754C12.6679 32.0754 13.9079 31.6146 14.8221 30.7943C15.7364 29.974 16.25 28.8615 16.25 27.7015V27.7015Z" fill="#007BFF"/>
</svg>
