<svg width="38" height="38" viewBox="0 0 38 38" fill="none" xmlns="http://www.w3.org/2000/svg">
<path d="M34.4375 29.6875H32.0625V27.3125H33.25V22.5625H28.5V23.75H26.125V21.375C26.125 21.0601 26.2501 20.758 26.4728 20.5353C26.6955 20.3126 26.9976 20.1875 27.3125 20.1875H34.4375C34.7524 20.1875 35.0545 20.3126 35.2772 20.5353C35.4999 20.758 35.625 21.0601 35.625 21.375V28.5C35.625 28.8149 35.4999 29.117 35.2772 29.3397C35.0545 29.5624 34.7524 29.6875 34.4375 29.6875Z" fill="#007BFF"/>
<path d="M28.5 35.625H21.375C21.0601 35.625 20.758 35.4999 20.5353 35.2772C20.3126 35.0545 20.1875 34.7524 20.1875 34.4375V27.3125C20.1875 26.9976 20.3126 26.6955 20.5353 26.4728C20.758 26.2501 21.0601 26.125 21.375 26.125H28.5C28.8149 26.125 29.117 26.2501 29.3397 26.4728C29.5624 26.6955 29.6875 26.9976 29.6875 27.3125V34.4375C29.6875 34.7524 29.5624 35.0545 29.3397 35.2772C29.117 35.4999 28.8149 35.625 28.5 35.625ZM22.5625 33.25H27.3125V28.5H22.5625V33.25Z" fill="#007BFF"/>
<path d="M17.8125 23.5815C16.9545 23.3579 16.1763 22.8982 15.5664 22.2545C14.9565 21.6109 14.5393 20.8091 14.3622 19.9403C14.1851 19.0715 14.2551 18.1704 14.5643 17.3394C14.8736 16.5084 15.4097 15.7807 16.1117 15.239C16.8137 14.6973 17.6535 14.3634 18.5358 14.275C19.4181 14.1867 20.3075 14.3475 21.103 14.7392C21.8985 15.1309 22.5682 15.7378 23.0361 16.491C23.504 17.2441 23.7513 18.1134 23.75 19.0001H26.125C26.1264 17.6414 25.7392 16.3106 25.0092 15.1647C24.2791 14.0187 23.2366 13.1054 22.0046 12.5324C20.7726 11.9595 19.4025 11.7507 18.0557 11.9308C16.709 12.1109 15.4418 12.6723 14.4036 13.5488C13.3654 14.4253 12.5995 15.5804 12.1961 16.8779C11.7928 18.1754 11.7689 19.5612 12.1272 20.8718C12.4855 22.1824 13.2111 23.3633 14.2184 24.2752C15.2257 25.187 16.4728 25.7918 17.8125 26.0183V23.5815Z" fill="#007BFF"/>
<path d="M34.3068 16.0906L31.5637 18.5012L29.8775 16.815L32.7393 14.2975L29.9368 9.4525L25.8518 10.83C24.8949 10.0335 23.8111 9.40329 22.6456 8.96563L21.8025 4.75H16.1975L15.3543 8.96563C14.1794 9.39105 13.0897 10.0224 12.1362 10.83L8.06309 9.4525L5.26059 14.2975L8.49059 17.1356C8.27089 18.3648 8.27089 19.6233 8.49059 20.8525L5.26059 23.7025L8.06309 28.5475L12.1481 27.17C13.105 27.9665 14.1888 28.5967 15.3543 29.0344L16.1975 33.25H17.8125V35.625H16.1975C15.6483 35.6246 15.1162 35.4338 14.6919 35.0852C14.2675 34.7366 13.9771 34.2518 13.87 33.7131L13.2643 30.7206C12.7267 30.4584 12.207 30.1609 11.7087 29.83L8.82309 30.8038C8.5777 30.8836 8.32113 30.9237 8.06309 30.9225C7.64595 30.9254 7.2356 30.8168 6.87445 30.6081C6.51329 30.3993 6.21442 30.0979 6.00871 29.735L3.20621 24.89C2.92903 24.4138 2.82604 23.8561 2.91486 23.3123C3.00368 22.7686 3.2788 22.2726 3.69309 21.9094L5.97309 19.9144C5.94934 19.6056 5.93746 19.3088 5.93746 19C5.93746 18.6912 5.96121 18.3944 5.98496 18.0975L3.69309 16.0906C3.2788 15.7274 3.00368 15.2314 2.91486 14.6877C2.82604 14.1439 2.92903 13.5862 3.20621 13.11L6.00871 8.265C6.21442 7.9021 6.51329 7.6007 6.87445 7.39194C7.2356 7.18318 7.64595 7.07463 8.06309 7.0775C8.32113 7.07631 8.5777 7.1164 8.82309 7.19625L11.6968 8.17C12.1992 7.83905 12.7229 7.54153 13.2643 7.27938L13.87 4.28687C13.9771 3.74824 14.2675 3.26336 14.6919 2.91477C15.1162 2.56619 15.6483 2.37544 16.1975 2.375H21.8025C22.3516 2.37544 22.8837 2.56619 23.3081 2.91477C23.7324 3.26336 24.0229 3.74824 24.13 4.28687L24.7356 7.27938C25.2732 7.54159 25.7929 7.83912 26.2912 8.17L29.1768 7.19625C29.4222 7.1164 29.6788 7.07631 29.9368 7.0775C30.354 7.07463 30.7643 7.18318 31.1255 7.39194C31.4866 7.6007 31.7855 7.9021 31.9912 8.265L34.7937 13.11C35.0709 13.5862 35.1739 14.1439 35.0851 14.6877C34.9962 15.2314 34.7211 15.7274 34.3068 16.0906Z" fill="#007BFF"/>
</svg>
