<svg width="44" height="44" viewBox="0 0 44 44" fill="none" xmlns="http://www.w3.org/2000/svg">
<path d="M34 3H13.9997C11.7937 3 9.99969 4.7043 9.99969 6.8V17.4134L0.58558 26.3567C0.305958 26.6224 0.115543 26.9609 0.0384074 27.3294C-0.0387286 27.698 0.000877912 28.0799 0.15222 28.427C0.303561 28.7742 0.559843 29.0709 0.888667 29.2797C1.21749 29.4884 1.60409 29.5999 1.9996 29.6V39.1C1.9996 39.6039 2.21031 40.0872 2.58539 40.4435C2.96047 40.7998 3.46918 41 3.99962 41H36C36.5304 41 37.0391 40.7998 37.4142 40.4435C37.7893 40.0872 38 39.6039 38 39.1V6.8C38 4.7043 36.206 3 34 3ZM17.9998 37.2H5.99964V26.5866L11.9997 20.8866L17.9998 26.5866V37.2ZM34 37.2H21.9998V29.6C22.3958 29.6008 22.783 29.4899 23.1125 29.2813C23.4419 29.0726 23.6987 28.7757 23.8502 28.4282C24.0017 28.0807 24.0411 27.6983 23.9634 27.3295C23.8857 26.9606 23.6944 26.6221 23.4138 26.3567L13.9997 17.4134V6.8H34V37.2Z" fill="#007BFF"/>
<path d="M18.4 12H22.6V15.6364H18.4V12ZM26.8 12H31V15.6364H26.8V12ZM26.8 19.3291H31V22.9091H26.8V19.3291ZM26.8 26.5455H31V30.1818H26.8V26.5455ZM10 28.3636H14.2V32H10V28.3636Z" fill="#007BFF"/>
</svg>
