<svg width="37" height="48" viewBox="0 0 37 48" fill="none" xmlns="http://www.w3.org/2000/svg">
<path d="M1.743 20.8H5.228V43.2H10.457V24H15.686V43.2H20.914V24H26.144V43.2H31.373V20.8H34.857C35.82 20.8 36.601 20.084 36.601 19.2C36.601 18.666 36.313 18.196 35.874 17.906L35.877 17.903L35.851 17.888L35.806 17.861L19.171 9.252V6.73C22.243 8.142 24.772 5.71 28.756 7.172V1.601C24.77 0.139 22.242 2.569 19.171 1.158V0.8C19.171 0.357 18.782 0 18.3 0C17.818 0 17.43 0.357 17.43 0.8V9.252L0.795 17.859L0.75 17.886L0.725 17.903V17.906C0.288 18.196 0.000999928 18.667 0.000999928 19.2C-7.25267e-08 20.084 0.781 20.8 1.743 20.8ZM3.485 44.801L0 48H36.602L33.115 44.801H3.485Z" fill="#007BFF"/>
</svg>
