<svg width="38" height="38" viewBox="0 0 38 38" fill="none" xmlns="http://www.w3.org/2000/svg">
<path d="M19 26.125C17.5908 26.125 16.2133 25.7071 15.0416 24.9242C13.8699 24.1413 12.9566 23.0285 12.4174 21.7266C11.8781 20.4247 11.737 18.9921 12.0119 17.61C12.2868 16.2279 12.9654 14.9583 13.9619 13.9619C14.9583 12.9654 16.2279 12.2868 17.61 12.0119C18.9921 11.737 20.4247 11.8781 21.7266 12.4174C23.0285 12.9566 24.1413 13.8699 24.9242 15.0416C25.7071 16.2133 26.125 17.5908 26.125 19C26.1352 19.9385 25.9578 20.8696 25.6034 21.7386C25.2489 22.6077 24.7245 23.3972 24.0608 24.0608C23.3972 24.7245 22.6077 25.2489 21.7386 25.6034C20.8696 25.9578 19.9385 26.1352 19 26.125ZM19 14.25C18.3723 14.2357 17.7482 14.3488 17.1655 14.5825C16.5827 14.8161 16.0534 15.1655 15.6094 15.6094C15.1655 16.0534 14.8161 16.5827 14.5825 17.1655C14.3488 17.7482 14.2357 18.3723 14.25 19C14.2357 19.6277 14.3488 20.2518 14.5825 20.8345C14.8161 21.4173 15.1655 21.9466 15.6094 22.3906C16.0534 22.8345 16.5827 23.1839 17.1655 23.4175C17.7482 23.6512 18.3723 23.7643 19 23.75C19.6277 23.7643 20.2518 23.6512 20.8345 23.4175C21.4173 23.1839 21.9466 22.8345 22.3906 22.3906C22.8345 21.9466 23.1839 21.4173 23.4175 20.8345C23.6512 20.2518 23.7643 19.6277 23.75 19C23.7643 18.3723 23.6512 17.7482 23.4175 17.1655C23.1839 16.5827 22.8345 16.0534 22.3906 15.6094C21.9466 15.1655 21.4173 14.8161 20.8345 14.5825C20.2518 14.3488 19.6277 14.2357 19 14.25Z" fill="#007BFF"/>
<path d="M34.7998 13.1147L31.9973 8.26025C31.7229 7.78428 31.2919 7.41826 30.7778 7.22465C30.2637 7.03104 29.6983 7.02184 29.1781 7.19862L26.2878 8.17594C25.7896 7.84058 25.2691 7.53983 24.7298 7.27581L24.1324 4.2845C24.0248 3.7459 23.7338 3.26126 23.309 2.9131C22.8842 2.56494 22.3518 2.37478 21.8026 2.375H16.1976C15.6483 2.37478 15.116 2.56494 14.6912 2.9131C14.2664 3.26126 13.9754 3.7459 13.8677 4.2845L13.2704 7.27581C12.725 7.53693 12.1984 7.83572 11.6946 8.17L8.82082 7.19862C8.30098 7.02246 7.73615 7.03197 7.22254 7.22555C6.70893 7.41913 6.27832 7.7848 6.00407 8.26025L3.20157 13.1147C2.92704 13.5901 2.82564 14.1459 2.91461 14.6875C3.00359 15.2292 3.27746 15.7233 3.68964 16.0859L5.9827 18.1011C5.96251 18.4003 5.93757 18.6972 5.93757 19C5.93757 19.3064 5.94945 19.6092 5.97082 19.9096L3.69082 21.9141C3.27826 22.2764 3.00394 22.7703 2.91453 23.312C2.82511 23.8537 2.92613 24.4096 3.20039 24.8853L6.00289 29.7397C6.27704 30.2159 6.70797 30.5822 7.22211 30.776C7.73625 30.9699 8.30173 30.9792 8.82201 30.8026L11.7124 29.8241C12.2103 30.16 12.7309 30.4612 13.2704 30.7254L13.8677 33.7155C13.9754 34.2541 14.2664 34.7387 14.6912 35.0869C15.116 35.4351 15.6483 35.6252 16.1976 35.625H21.3751V33.25H16.1976L15.3544 29.0344C14.1881 28.6011 13.1054 27.9696 12.1541 27.1676L8.06082 28.5522L5.25832 23.6978L8.49426 20.8537C8.27287 19.6257 8.27006 18.3682 8.48595 17.1392L5.25832 14.3022L8.06082 9.44775L12.1304 10.8253C13.0885 10.0222 14.1796 9.39283 15.3544 8.96563L16.1976 4.75H21.8026L22.6457 8.96563C23.812 9.39896 24.8947 10.0305 25.846 10.8324L29.9393 9.44775L32.7418 14.3022L29.4192 17.214L30.9843 19L34.3093 16.0859C34.7219 15.7236 34.9962 15.2297 35.0856 14.688C35.175 14.1463 35.074 13.5904 34.7998 13.1147Z" fill="#007BFF"/>
<path d="M27.3125 31.0888L24.2369 28.0132L22.5625 29.6876L27.3125 34.4376L35.625 26.1251L33.9506 24.4507L27.3125 31.0888Z" fill="#007BFF"/>
</svg>
