<svg width="40" height="40" viewBox="0 0 40 40" fill="none" xmlns="http://www.w3.org/2000/svg">
<path d="M37.5007 9.91667V23.6667H33.834V11.75L24.6673 5.33333L15.5007 11.75V14.5H11.834V9.91667L24.6673 0.75L37.5007 9.91667ZM27.4173 10.8333H25.584V12.6667H27.4173V10.8333ZM23.7507 10.8333H21.9173V12.6667H23.7507V10.8333ZM27.4173 14.5H25.584V16.3333H27.4173V14.5ZM23.7507 14.5H21.9173V16.3333H23.7507V14.5ZM33.834 27.3333H30.1673C30.1673 25.1333 28.7923 23.1533 26.739 22.3833L15.4457 18.1667H0.833984V38.3333H11.834V35.6933L24.6673 39.25L39.334 34.6667V32.8333C39.334 29.79 36.8773 27.3333 33.834 27.3333ZM4.50065 34.6667V21.8333H8.16732V34.6667H4.50065ZM24.6123 35.4183L11.834 31.88V21.8333H14.7857L25.4557 25.8117C26.079 26.05 26.5007 26.655 26.5007 27.3333C26.5007 27.3333 22.8523 27.2417 22.284 27.0583L17.9207 25.61L16.7657 29.0933L21.129 30.5417C22.064 30.8533 23.0357 31.0183 24.0257 31.0183H33.834C34.549 31.0183 35.1907 31.44 35.484 32.045L24.6123 35.4183Z" fill="#007BFF"/>
</svg>
