<svg width="44" height="44" viewBox="0 0 44 44" fill="none" xmlns="http://www.w3.org/2000/svg">
<path d="M14 25H25V28H14V25Z" fill="#007BFF"/>
<path d="M14 18H30V21H14V18Z" fill="#007BFF"/>
<path d="M14 32H21V34H14V32Z" fill="#007BFF"/>
<path d="M34.2727 7.07143H30.1818V5.71429C30.1818 4.99441 29.8945 4.30402 29.383 3.795C28.8716 3.28597 28.1779 3 27.4545 3H16.5455C15.8221 3 15.1284 3.28597 14.617 3.795C14.1055 4.30402 13.8182 4.99441 13.8182 5.71429V7.07143H9.72727C9.00396 7.07143 8.31026 7.3574 7.7988 7.86642C7.28734 8.37545 7 9.06584 7 9.78571V38.2857C7 39.0056 7.28734 39.696 7.7988 40.205C8.31026 40.714 9.00396 41 9.72727 41H34.2727C34.996 41 35.6897 40.714 36.2012 40.205C36.7127 39.696 37 39.0056 37 38.2857V9.78571C37 9.06584 36.7127 8.37545 36.2012 7.86642C35.6897 7.3574 34.996 7.07143 34.2727 7.07143ZM16.5455 5.71429H27.4545V11.1429H16.5455V5.71429ZM34.2727 38.2857H9.72727V9.78571H13.8182V13.8571H30.1818V9.78571H34.2727V38.2857Z" fill="#007BFF"/>
</svg>
