<svg width="44" height="44" viewBox="0 0 44 44" fill="none" xmlns="http://www.w3.org/2000/svg">
<path d="M33 44H2.75C2.02065 44 1.32118 43.7021 0.805457 43.1718C0.289732 42.6415 0 41.9223 0 41.1723V18.9468C7.18313e-06 18.2135 0.277081 17.5089 0.77275 16.9816L15.8978 0.863875C16.1542 0.590644 16.4616 0.373335 16.8016 0.224914C17.1415 0.0764925 17.5071 0 17.8764 0C18.2457 0 18.6112 0.0764925 18.9512 0.224914C19.2911 0.373335 19.5985 0.590644 19.855 0.863875L24.3953 5.70768L20.4545 9.64945L17.875 6.90095L5.5 20.0779V38.3305H35.75V41.1582C35.7518 41.5307 35.682 41.8999 35.5446 42.2446C35.4072 42.5893 35.205 42.9027 34.9494 43.1668C34.6939 43.4309 34.3901 43.6404 34.0556 43.7834C33.721 43.9264 33.3623 44 33 44ZM35.75 32.6893H30.25V24.2063H22V18.551H30.25V10.0679H35.75V18.551H44V24.2063H35.75V32.6893Z" fill="#007BFF"/>
</svg>
